<svg width="100" height="100" viewBox="0 0 100 100" fill="none" xmlns="http://www.w3.org/2000/svg" xmlns:xlink="http://www.w3.org/1999/xlink">
<path d="M50.5,53.25L50.359,54.24C50.417,54.248 50.475,54.251 50.534,54.249L50.5,53.25ZM49.5,53.25L49.466,54.249C49.519,54.251 49.572,54.249 49.624,54.242L49.5,53.25ZM63.667,39.625L64.667,39.631L64.667,39.625L63.667,39.625ZM50.641,52.26C50.251,52.204 49.785,52.206 49.376,52.258L49.624,54.242C49.881,54.21 50.166,54.212 50.359,54.24L50.641,52.26ZM49.534,52.251C42.738,52.019 37.333,46.459 37.333,39.625L35.333,39.625C35.333,47.541 41.596,53.981 49.466,54.249L49.534,52.251ZM37.333,39.625C37.333,32.634 42.971,26.958 50,26.958L50,24.958C41.862,24.958 35.333,31.533 35.333,39.625L37.333,39.625ZM50,26.958C56.989,26.958 62.667,32.636 62.667,39.625L64.667,39.625C64.667,31.531 58.094,24.958 50,24.958L50,26.958ZM62.667,39.619C62.628,46.463 57.257,52.019 50.466,52.251L50.534,54.249C58.41,53.981 64.622,47.537 64.667,39.631L62.667,39.619Z" fill="#292D32"/>
<path d="M78.083,80.75L78.759,81.488C78.993,81.273 79.111,80.96 79.078,80.645L78.083,80.75ZM21.917,80.75L20.922,80.645C20.889,80.96 21.007,81.273 21.241,81.488L21.917,80.75ZM29.292,70L28.738,69.167L28.733,69.171L29.292,70ZM70.708,70L71.267,69.171L71.265,69.169L70.708,70ZM77.408,80.013C70.168,86.643 60.574,90.667 50,90.667L50,92.667C61.093,92.667 71.165,88.442 78.759,81.488L77.408,80.013ZM50,90.667C39.427,90.667 29.832,86.643 22.592,80.013L21.241,81.488C28.835,88.442 38.907,92.667 50,92.667L50,90.667ZM22.911,80.856C23.289,77.306 25.569,73.711 29.85,70.83L28.733,69.171C24.098,72.29 21.378,76.361 20.922,80.645L22.911,80.856ZM29.845,70.833C35.355,67.173 42.672,65.313 50.031,65.313C57.391,65.313 64.685,67.173 70.152,70.832L71.265,69.169C65.398,65.244 57.693,63.313 50.031,63.313C42.369,63.313 34.645,65.244 28.738,69.167L29.845,70.833ZM70.15,70.83C74.432,73.711 76.711,77.306 77.089,80.856L79.078,80.645C78.622,76.361 75.902,72.29 71.267,69.171L70.15,70.83Z" fill="#292D32"/>
<path d="M50,92.667C73.564,92.667 92.667,73.564 92.667,50L90.667,50C90.667,72.459 72.459,90.667 50,90.667L50,92.667ZM92.667,50C92.667,26.436 73.564,7.333 50,7.333L50,9.333C72.459,9.333 90.667,27.54 90.667,50L92.667,50ZM50,7.333C26.436,7.333 7.333,26.436 7.333,50L9.333,50C9.333,27.54 27.54,9.333 50,9.333L50,7.333ZM7.333,50C7.333,73.564 26.436,92.667 50,92.667L50,90.667C27.54,90.667 9.333,72.459 9.333,50L7.333,50Z" fill="#292D32"/>
</svg>
